<svg xmlns="http://www.w3.org/2000/svg" xmlns:xlink="http://www.w3.org/1999/xlink" width="1056.598" height="439.031" viewBox="0 0 1056.598 439.031">
  <defs>
    <clipPath id="clip-path">
      <rect id="Rectangle_128" data-name="Rectangle 128" width="1056.598" height="439.031" fill="none"/>
    </clipPath>
    <clipPath id="clip-path-3">
      <rect id="Rectangle_126" data-name="Rectangle 126" width="917.507" height="422.169" fill="none"/>
    </clipPath>
  </defs>
  <g id="Group_175" data-name="Group 175" transform="translate(0)" opacity="0.304">
    <g id="Group_173" data-name="Group 173" transform="translate(0)" clip-path="url(#clip-path)">
      <g id="Group_172" data-name="Group 172">
        <g id="Group_171" data-name="Group 171" clip-path="url(#clip-path)">
          <g id="Group_170" data-name="Group 170" transform="translate(14.977 15.143)" opacity="0.19">
            <g id="Group_169" data-name="Group 169">
              <g id="Group_168" data-name="Group 168" clip-path="url(#clip-path-3)">
                <path id="Path_17536" data-name="Path 17536" d="M475.342,47.545c-3.486.034-109.868.893-121.281,2.406-.021,0-.031.013-.044,0l-.924.3c1.276.95,2.507,1.924,3.669,2.976l-.4.448c18.651,10.811,41.811,10.173,62.964,6.051,18.752-3.648,37.117-9.808,56.02-12.186" transform="translate(-353.093 61.108)" fill="#75fbb5"/>
                <path id="Path_17537" data-name="Path 17537" d="M377.066,138.077l-.01.01a44.936,44.936,0,0,0,6.965,1.469c13.581,1.75,27.238-1.679,40.447-5.27-.263.068-.182-.448.143-1.435-1.273-4.119-9.467-15.565-9.467-15.565Z" transform="translate(-364.756 172.956)" fill="#75fbb5"/>
                <path id="Path_17538" data-name="Path 17538" d="M336.557,142.419a.347.347,0,0,1-.208.138c35.4-9.639,70.481-20.7,106.135-29.232l-62.805-1.2Z" transform="translate(-276.637 164.685)" fill="#75fbb5"/>
                <path id="Path_17539" data-name="Path 17539" d="M332.012,56.743c-12.454.331-85.929-8.147-88.416-8.428a128.529,128.529,0,0,1,14.654,4.064c6.491,2.257,12.925,5.257,17.664,10.238s7.468,12.316,5.546,18.906a17.534,17.534,0,0,1-5.858,8.6s46.649-29.313,56.411-33.38" transform="translate(75.342 62.342)" fill="#75fbb5"/>
                <path id="Path_17540" data-name="Path 17540" d="M355.868,156.936l-31.836,11.542v.021c16.568,4.512,34.312,3.3,51.531,2.023,14.477-1.06,29.1-1.359,42.342-7.254l-28.595-8.736-33.964-13.7Z" transform="translate(-219.988 210.718)" fill="#75fbb5"/>
                <path id="Path_17541" data-name="Path 17541" d="M138.328,13.085l209.207,25.4-4.635-4.2q-15.431-7.2-30.86-14.386c-7.569-3.541-15.18-7.08-23.163-9.509C268.17,4.12,246.012,5.623,224.424,7.2q-17.618,1.273-35.247,2.557-25.414,1.871-50.849,3.333" transform="translate(333.912 -5.815)" fill="#75fbb5"/>
                <path id="Path_17542" data-name="Path 17542" d="M337.513,135.223,276.442,177.86l104.638-8.879,19.276-37.247c-1.807,1.211-25.228,17.648-25.228,17.648Z" transform="translate(-78.525 196.127)" fill="#75fbb5"/>
                <path id="Path_17543" data-name="Path 17543" d="M345.313,179.357,312.284,149.45c-2.731,4.721.992,10.532,4.934,14.305A86.448,86.448,0,0,0,344.61,181.1Z" transform="translate(-114.367 224.539)" fill="#75fbb5"/>
                <path id="Path_17544" data-name="Path 17544" d="M449.49,97.385l-113.384,8.3c-1.771,1.955-70.307,31.287-70.307,31.287,12.251-2.932,24.569-5.58,36.984-7.754,27.35-4.791,55.132-7.343,82.089-14.013,16.672-4.132,32.914-9.814,49.417-14.568a91.932,91.932,0,0,1,15.2-3.249" transform="translate(-99.95 141.039)" fill="#75fbb5"/>
                <path id="Path_17545" data-name="Path 17545" d="M268.465,159.661l-7.986,3.32-.7,1.739c19.786,8.121,42.543,10.759,64.154,12.865,21.557,2.1,43.181,4.218,64.834,3.539,1.992-.068,3.994-.146,5.994-.266Z" transform="translate(-29.533 240.915)" fill="#75fbb5"/>
                <path id="Path_17546" data-name="Path 17546" d="M237.077,162.141,217.8,199.388l165.454-51.95,6.507-34.664s-150.878,48.157-152.685,49.367" transform="translate(84.757 165.72)" fill="#75fbb5"/>
                <path id="Path_17547" data-name="Path 17547" d="M268.384,180.312l88.148-16.8,74.158,1.794-12.9-52.6-53.544.18-6.507,34.664L192.281,199.5l60.374-15.216Z" transform="translate(110.275 165.609)" fill="#75fbb5"/>
                <path id="Path_17548" data-name="Path 17548" d="M220.475,171.162,214.754,190.7c22.27-1.2,44.332-5.025,66.469-7.785,16.859-2.117,33.755-3.627,50.7-4.713l-8.668-24.681c-42.4,7.488-101.1,17.792-102.776,17.64" transform="translate(150.533 231.07)" fill="#75fbb5"/>
                <path id="Path_17549" data-name="Path 17549" d="M222.247,132.908,198.1,178.922l-34.349,32.341c44.142-2.841,88.5-2.864,132.766-3.351Z" transform="translate(318.717 198.01)" fill="#75fbb5"/>
                <path id="Path_17550" data-name="Path 17550" d="M109.28,180.331c4.562-.055,9.105-.109,13.657-.174,33.367-.482,66.932-1.453,99.617-8.184,9.618-1.981,19.119-4.458,28.566-7.124,0,0-77.618-16.133-79.595-14.646l-.06.065c.1,1.981-62.186,30.063-62.186,30.063" transform="translate(505.961 225.591)" fill="#75fbb5"/>
                <path id="Path_17551" data-name="Path 17551" d="M68.793,111.791l-.4,114.508L174.86,175.638Z" transform="translate(688.692 164.143)" fill="#75fbb5"/>
                <path id="Path_17552" data-name="Path 17552" d="M47.667,186.972c23.611-6.632,46.938-14.435,71.085-18.63,29.222-5.088,64-7.642,89.34,6.621l-53.955-38.65Z" transform="translate(709.414 203.471)" fill="#75fbb5"/>
              </g>
            </g>
          </g>
          <path id="Path_17553" data-name="Path 17553" d="M904.19,310.655a196.357,196.357,0,0,0,24.166-35.909,259.468,259.468,0,0,0,28.389-150.891c-3.486-29.592-13.454-49.672-29.623-59.686l-.206-.128-.237.042c-11.923,2.065-22.554-1.312-32.274-5.27-3.2-1.3-6.455-2.757-9.608-4.163-9.22-4.111-18.755-8.363-29.032-10.074-7.939-1.31-16.1-.9-24-.508-1.992.1-3.981.2-5.97.273-7.028.255-14.289.18-21.585-.229-19.713-1.06-40.809-4.494-64.5-10.5l-.307,1.224c23.765,6.023,44.938,9.47,64.732,10.535,7.332.406,14.636.484,21.7.227,2-.073,3.992-.172,5.989-.271,7.827-.393,15.925-.8,23.723.492,10.121,1.682,19.58,5.9,28.73,9.98,3.161,1.409,6.429,2.867,9.644,4.182,9.358,3.809,20.552,7.418,32.729,5.382C942.364,75.212,952.066,94.938,955.49,124a258.213,258.213,0,0,1-28.248,150.149c-25.2,47.365-55.679,65.961-76.811,73.22l-.154.052-.427.471A61.97,61.97,0,0,0,839,340.2c-27.139-15.279-64.222-11.139-89.754-6.694-18.25,3.169-36.317,8.48-53.789,13.618-5.681,1.669-11.563,3.4-17.362,5.028-11.079,3.127-20.145,5.387-28.524,7.114-32.479,6.686-65.6,7.678-99.5,8.168-4.557.065-9.1.12-13.657.174q-9.413.106-18.83.19c-37.4.357-76.069.724-113.972,3.164-18.112,1.159-34.706,2.7-50.753,4.713-6.377.8-12.852,1.7-19.114,2.562-15.477,2.148-31.48,4.369-47.313,5.221-2.06.125-4.054.2-6.041.268-21.525.677-43.368-1.453-64.49-3.51l-.263-.026c-22.629-2.205-44.548-4.848-63.977-12.818a85.148,85.148,0,0,1-27.194-17.216c-1.909-1.828-7.9-8.207-4.825-13.534l.974-1.682-1.773.789c-11.566,5.148-24.468,6.009-36.953,6.843-1.726.115-3.455.229-5.184.357-16.19,1.205-34.539,2.57-51.318-2-1.622-.44-3.192-.927-4.8-1.487C13.934,337.107,5.365,332.62,2.368,324.5c-2.416-6.535-.841-14.657,4.327-22.283.562-.844,1.211-1.724,1.979-2.7,10.108-12.829,25.741-18.7,37.08-21.4,10.876-2.586,22.254-3.479,33.255-4.346,4.507-.354,9.165-.719,13.732-1.2a348.67,348.67,0,0,0,37.585-6.265l-.266-1.234a347.738,347.738,0,0,1-37.453,6.244c-4.551.474-9.2.841-13.7,1.2-11.05.87-22.476,1.768-33.448,4.374-11.537,2.752-27.438,8.783-37.781,21.846-.786,1-1.456,1.906-2.036,2.776-5.392,7.967-7.02,16.505-4.46,23.426,3.166,8.585,12.074,13.277,18.989,15.7,1.638.57,3.237,1.065,4.887,1.513,16.987,4.627,35.453,3.252,51.742,2.041,1.724-.128,3.45-.242,5.176-.357,12.063-.807,24.522-1.64,35.9-6.314-1.82,5.71,3.815,11.725,5.723,13.55a86.377,86.377,0,0,0,27.587,17.471c19.591,8.038,41.611,10.694,64.336,12.909l.258.026c21.161,2.06,43.046,4.192,64.657,3.515,1.995-.068,4-.146,6.007-.266,15.948-.859,31.977-3.083,47.477-5.234,6.259-.87,12.732-1.765,19.1-2.562,16.021-2.007,32.594-3.549,50.659-4.708,37.89-2.435,76.543-2.8,113.923-3.158q9.42-.094,18.828-.19c4.567-.055,9.111-.109,13.659-.174,33.969-.49,67.149-1.487,99.737-8.2,8.413-1.732,17.5-4,28.613-7.134,5.8-1.63,11.688-3.359,17.375-5.03,17.437-5.127,35.468-10.425,53.645-13.584,25.342-4.411,62.134-8.53,88.921,6.548a60.766,60.766,0,0,1,11.095,7.952l.466.424,1.052-1.164c14.86-5.129,34.242-15.792,53.2-37.859" transform="translate(98.111 53.914)" fill="#75fbb5"/>
          <path id="Path_17554" data-name="Path 17554" d="M429.932,79.108l.31-1.224c-6.864-1.739-13.99-3.7-21.187-5.822-4.627-1.37-9.379-2.812-14.526-4.419-10.741-3.367-21.614-6.968-32.128-10.449-18.81-6.228-38.26-12.67-57.7-18.005a23.756,23.756,0,0,0-11.191-.591l-4.463-4.041-.086-.039q-9.569-4.468-19.143-8.926l-11.72-5.46c-7.069-3.312-15.084-7.056-23.244-9.545C213.744,4.195,190.6,5.882,170.175,7.366l-35.25,2.562c-18.765,1.38-35.393,2.466-50.839,3.328l.07,1.263c15.453-.862,32.089-1.953,50.862-3.33l35.247-2.56C190.578,7.15,213.6,5.473,234.491,11.8c8.074,2.458,15.7,6.028,23.077,9.478l11.72,5.46q9.526,4.437,19.057,8.884l4.809,4.353.32-.073a22.361,22.361,0,0,1,10.9.505c19.4,5.33,38.838,11.764,57.634,17.987,10.517,3.484,21.4,7.087,32.149,10.454,5.153,1.609,9.91,3.057,14.545,4.426,7.212,2.127,14.355,4.091,21.234,5.835" transform="translate(407.413 9.613)" fill="#75fbb5"/>
          <path id="Path_17555" data-name="Path 17555" d="M708.563,24.133l-.07-1.26c-42.608,2.421-79.925,3.335-114.066,2.791l-1.643-1.487-.156-.036q-47-11.334-94-22.629c-3.679-.9-8.259-2.021-12.639-1.26-3.95.687-8.569,3.554-9.392,8.231a17.568,17.568,0,0,0,.19,5.369c.354,2.58.69,5.02-.719,6.856a4.878,4.878,0,0,1-2.752,1.752,19.583,19.583,0,0,1-6.343.263l-.5-.029c-11.227-.726-22.119,3.028-32.651,6.658-3.7,1.276-7.52,2.6-11.29,3.695-9.519,2.778-19.518,4.367-29.183,5.9l-45.3,7.163q-30.167,4.757-60.3,9.53c-9.788,1.549-19.906,3.153-29.292,7.108C249.732,66.434,242.108,72,235.8,76.966c-1.258.979-2.494,1.981-3.734,2.981l-.172.141c-6.6,5.33-13.73,11.74-14.761,20.39-.729,6.064,1.789,12.7,6.908,18.2a57.416,57.416,0,0,0,8.728,7.132c1.06.758,2.122,1.513,3.158,2.291,1.239.922,2.255,1.734,3.153,2.518l-.5.555.674.391c16.055,9.306,36.791,11.311,63.4,6.127,7.507-1.461,15.068-3.354,22.379-5.181,10.957-2.742,22.283-5.577,33.6-7l-.156-1.252c-11.389,1.432-22.754,4.275-33.747,7.025-7.3,1.825-14.839,3.713-22.317,5.168-25.918,5.049-46.162,3.221-61.847-5.593l.3-.333-.469-.422c-1.044-.945-2.224-1.9-3.713-3.015-1.047-.781-2.114-1.544-3.182-2.307a56.208,56.208,0,0,1-8.538-6.965c-4.866-5.228-7.265-11.493-6.58-17.187.974-8.184,7.895-14.388,14.3-19.559l.174-.141c1.232-.995,2.463-1.992,3.718-2.968,6.241-4.913,13.779-10.423,22.369-14.047,9.243-3.9,19.289-5.486,29-7.028q30.152-4.773,60.3-9.527l45.2-7.147c9.808-1.557,19.846-3.151,29.441-5.955,3.8-1.107,7.639-2.429,11.352-3.71,10.412-3.591,21.182-7.3,32.159-6.6l.495.031a20.53,20.53,0,0,0,6.762-.307,6.163,6.163,0,0,0,3.414-2.2c1.732-2.255,1.344-5.075.971-7.8a16.656,16.656,0,0,1-.2-4.981c.713-4.072,4.835-6.588,8.363-7.2,4.119-.713,8.371.328,12.123,1.247q46.926,11.283,93.842,22.59l1.755,1.588.237.005c34.24.552,71.658-.362,114.4-2.791" transform="translate(-217.013 -0.001)" fill="#75fbb5"/>
          <path id="Path_17556" data-name="Path 17556" d="M469.19,58.048l.271-1.234c-8.113-1.773-16.065-2.929-25.616-4.257l-14.922-2.08Q411.191,48,393.462,45.518c-8.34-1.164-16.964-2.367-25.618-2.2a114.442,114.442,0,0,0-20.426,2.471c-4.031.786-8.113,1.708-12.061,2.6-8.374,1.888-17.034,3.843-25.678,4.632-5.33.495-10.785.56-16.06.628-4.494.055-9.142.112-13.711.432-1.341.089-2.7.208-4.044.339l.125,1.258c1.33-.13,2.671-.25,4-.336,4.536-.318,9.165-.375,13.641-.43,5.3-.068,10.782-.135,16.162-.633,8.723-.8,17.424-2.76,25.84-4.658,3.939-.888,8.012-1.807,12.024-2.591a113.3,113.3,0,0,1,20.208-2.448c8.556-.169,17.128,1.028,25.421,2.187q17.728,2.488,35.463,4.955l14.92,2.083c9.525,1.323,17.45,2.476,25.52,4.239" transform="translate(-131.146 69.451)" fill="#75fbb5"/>
          <path id="Path_17557" data-name="Path 17557" d="M629.024,177.191,629,175.928a39.894,39.894,0,0,0-4.364.325,93.778,93.778,0,0,0-15.295,3.27c-6.187,1.781-12.436,3.721-18.479,5.6-10.082,3.135-20.5,6.379-30.914,8.957-17.443,4.32-35.541,6.955-53.047,9.5-9.522,1.383-19.364,2.817-29,4.5-11.532,2.018-23.645,4.559-37.026,7.764-22.84,5.463-45.818,12.076-68.039,18.468-12.48,3.591-25.384,7.3-38.116,10.769-14.253,3.869-27.116,6.934-40.2,5.252a44.805,44.805,0,0,1-6.866-1.448c-11.9-3.473-20.932-11.313-24.153-20.971a29.455,29.455,0,0,1,.013-17.768,43.8,43.8,0,0,1,14.092-20.775,69.243,69.243,0,0,1,16.9-9.98,202.514,202.514,0,0,1,23.145-7.858q5.851-1.726,11.7-3.442,5.554-1.629,11.108-3.27,10.529-3.089,21.057-6.187t21.054-6.192l78.386-23.059c17.7-5.208,35.937-10.569,54.153-14.516a288.76,288.76,0,0,1,36.156-5.72l1.4-.068c18.37-1.073,36.434-5.075,54.864-9.431,8.546-2.007,14.758-4.705,18.995-8.249a18.233,18.233,0,0,0,6.059-8.91c1.83-6.272-.4-13.933-5.694-19.515-4.1-4.312-9.623-7.517-17.911-10.4a128.157,128.157,0,0,0-14.727-4.08l-.273,1.229a127.812,127.812,0,0,1,14.586,4.044c8.09,2.817,13.459,5.926,17.411,10.082,4.984,5.262,7.1,12.446,5.4,18.294a17,17,0,0,1-5.655,8.29c-4.085,3.414-10.129,6.03-18.476,7.991-18.375,4.343-36.38,8.335-54.645,9.4l-1.419.073a290.333,290.333,0,0,0-36.336,5.744c-18.26,3.955-36.518,9.329-54.179,14.521l-78.449,23.075q-10.526,3.089-21.054,6.194t-21.054,6.189q-5.558,1.64-11.11,3.265-5.851,1.722-11.7,3.442a203.944,203.944,0,0,0-23.288,7.913,70.6,70.6,0,0,0-17.2,10.163,45.108,45.108,0,0,0-14.5,21.393,30.7,30.7,0,0,0,0,18.526c3.351,10.053,12.7,18.2,24.994,21.781a45.445,45.445,0,0,0,7.061,1.492c13.316,1.713,26.306-1.383,40.694-5.288,12.738-3.468,25.647-7.184,38.132-10.774,22.208-6.39,45.17-12.993,67.984-18.453,13.355-3.2,25.441-5.731,36.947-7.746,9.616-1.685,19.45-3.117,28.962-4.5,17.536-2.552,35.669-5.192,53.169-9.522,10.446-2.593,20.89-5.838,30.987-8.978,6.038-1.877,12.279-3.82,18.453-5.6a93.053,93.053,0,0,1,15.1-3.231,38.521,38.521,0,0,1,4.236-.315" transform="translate(-255.881 77.778)" fill="#75fbb5"/>
          <path id="Path_17558" data-name="Path 17558" d="M264.9,98.786l.089-1.258a40.33,40.33,0,0,0-4.072-.081l.031,1.26c1.437-.036,2.729-.01,3.953.078" transform="translate(112.242 156.255)" fill="#75fbb5"/>
          <path id="Path_17559" data-name="Path 17559" d="M356.662,117.879c2.539-2.955,4-7.228,2.375-10.99a11.963,11.963,0,0,0-4.8-5.184,27.678,27.678,0,0,0-13.18-4.231l-.1,1.26a26.412,26.412,0,0,1,12.592,4.031,10.761,10.761,0,0,1,4.327,4.622c1.7,3.926-.531,8.546-3.609,11.082-3.361,2.765-7.715,3.924-11.923,5.046L253.7,146.971l.323,1.221,88.65-23.46c4.14-1.1,8.827-2.349,12.4-5.291a12.857,12.857,0,0,0,1.591-1.562" transform="translate(36.312 156.324)" fill="#75fbb5"/>
          <path id="Path_17560" data-name="Path 17560" d="M460.664,389.491l.37-.508L563.091,248.917l-.044-.263L537.96,103.983,350.288,73.433,213.434,34.205,4.065,8.782l-1.752.133,20.312,15.3L37.755,62.2,2.573,101.046l48.935,24.2,23.929,65.719-33.089,22.78,29.925,19.33,20.091,47.292L72.039,333.219l.289.292,74.582,75.314.4-.18c.154-.07,15.753-7.106,31.138-14.292,26.155-12.219,30.532-14.912,31.287-15.919,3.091-.549,48.841,8.5,79.03,14.774l.206.042L395.3,342.658ZM561.755,248.607,460.383,387.734,395.43,341.2l-.336.159-106.28,50.568c-22.963-4.77-75.28-15.443-79.657-14.576l-.005-.023-.523.125-.01.383c-2.2,2.294-37.64,18.75-61.425,29.48l-73.681-74.4,20.216-52.57-20.442-48.12-.161-.1-28.5-18.409,32.336-22.262L52.524,124.337,4.633,100.656l34.586-38.2L23.667,23.423l-17.4-13.11L213.184,35.439l136.81,39.226,186.877,30.42ZM208.612,377.949l0,.107a.707.707,0,0,1,0-.107" transform="translate(487.484 14.084)" fill="#75fbb5"/>
          <path id="Path_17561" data-name="Path 17561" d="M399.973,49.9l-.159-1.252c-.9.115-1.114.245-1.25.354l-.565.466.547.575.451-.5-.026.029.078.06.234.4a2.956,2.956,0,0,1,.69-.133m-.963-.37.385-.422Z" transform="translate(-379.671 78.02)" fill="#75fbb5"/>
          <path id="Path_17562" data-name="Path 17562" d="M472.881,48.978l-.1-1.258h-.021l-1.117.01c-25.647.224-110.118,1.057-120.263,2.4l.167,1.252c10.074-1.338,94.478-2.169,120.107-2.393Z" transform="translate(-331.205 76.532)" fill="#75fbb5"/>
          <path id="Path_17563" data-name="Path 17563" d="M472.767,86.284l.266-1.234-66.326-14.3,50.536-22.106L398.32,24.452l5.653,46.063L351.359,87.476l.391,1.2L404.7,71.609ZM399.836,26.439,454.01,48.68,405.187,70.039Z" transform="translate(-331.292 39.215)" fill="#75fbb5"/>
          <path id="Path_17564" data-name="Path 17564" d="M398.479,49.885l-.154-.633.367-.453-.37.43-.021-.583-.172.026.167.588-.424.5.471.1,0,.049v-.049Z" transform="translate(-378.061 78.016)" fill="#75fbb5"/>
          <path id="Path_17565" data-name="Path 17565" d="M621.23,35.474l0-.4-.635.013.06-.581c-.638-.18-5.15-2.989-9.925-5.963-16.9-10.522-25.853-15.763-27.892-15.214a1.024,1.024,0,0,0-.547.359c-3.169,1.489-52.224-2.172-84.6-5.01l-.935-.083L509.26,49.438,477.5,99.029l-94.329,11.386L366.121,73.939l-1.253-25.491,8.676-16.505L260.33,63.98l-.008.474-.495,49.393.044.82,1.706-.557-.391-1.2-.091.029.487-48,109.475-30.98L363.59,48.167l1.336,26.189.24.523,17.245,36.9,3.606-.435,92.225-11.134.159-.25,32.24-50.333-.086-.279-12.048-39.33c4.3.372,22.757,1.953,41.134,3.273,40.054,2.88,43.019,2.021,43.605,1.247,2.3-.182,18.213,9.722,26.811,15.076C620.318,36,620.373,35.971,620.9,35.666ZM583.329,14.4l0,.005Z" transform="translate(-241.161 13.784)" fill="#75fbb5"/>
          <path id="Path_17566" data-name="Path 17566" d="M355.372,225.63l-89.559-1.914,29.41-32.474L285.4,153.5l-22.726-14.8c6.309-3.952,46.277-28.907,55.372-32.763,1.492-.042,1.9-.213,2.135-.518l.185-.24-.055-.38a.773.773,0,0,0-.414-.5c-.338-.164-.818-.156-2.119.383-11.183.229-68.047-6.127-86.75-8.259l45.852-36.289-.044-.354c-.547-4.127-5.348-40.34-5.525-41.059l-1.226.3c.169.818,3.611,26.681,5.452,40.564L227.551,97.559l1.893-.06.562.07c16.641,1.9,69.221,7.8,85.141,8.337-13.238,6.663-52.205,31.131-53.979,32.245l-.836.523,23.97,15.615,9.525,36.612-.112.125-30.771,33.979,1.495-.055,4.067.091,78.254,1.669-64.683,17.945.339,1.216Z" transform="translate(108.736 30.013)" fill="#75fbb5"/>
          <path id="Path_17567" data-name="Path 17567" d="M726.527,124.833l.1-1.26c-1.252-.1-125.447-9.816-128.194-6.619l0,.005-.151.687a.447.447,0,0,1,.081-.427.733.733,0,0,1-.135.091c-6.267,3.463-101.372,16.05-117.107,18.114l85.148-69.846-.8-.976-86.25,70.747-24.556-48.44-24.741,60.564-29.368-45.644-46.709,65.732c-30.511-42.577-31.339-42.322-31.891-42.152s-1.364.323-4.552,62.667l-19.226-17.411-18.312-33.9-14.24,46.969c-31.071-31.677-31.344-31.558-31.873-31.321-.141.063-.516.227-31.537,31.287l-.354.357.266.424L227.015,224.5l38.109-20.807c1.5,2.125,7.749,11.095,8.991,14.743-.307.961-.378,1.492-.052,1.843l.255.271.474-.068a.951.951,0,0,0,.583-.406,1.858,1.858,0,0,0,.065-1.63c.982-2.846,4.044-9.512,9.095-19.82l33.255-8.488.034.031.75-.232v-.049l18.081-6.822,17.06-13.508.133.182.38-.534,75.535-19.64.409.635.2-.492,20.8,10.389.318-.26,27.788-22.892c6.694-.87,112.634-14.693,119.58-18.534a1.337,1.337,0,0,0,.628-.635c6.239-2.039,116.847,6.223,127.048,7.061M599.5,117.316l.008.044ZM454.785,89.943l23.434,46.23L451,158.6l-20.145-10.066ZM400.5,104.081l28.545,44.363L355.365,167.6Zm-78,23.121c3.562,4.088,19.573,26.1,30.482,41.324l-17.034,13.485-17.3,6.5c1.159-22.65,3.023-55.351,3.854-61.306m-24.642,44.876,18.81,17.036-31.4,8.017c5.317-10.819,11.087-22.114,12.592-25.053m-14.93,26.952c-4.135,8.46-6.877,14.378-8.173,17.648-1.927-4.119-6.767-11.115-8.395-13.43Zm13.415-26.761c-2.008,3.929-7.621,14.94-12.686,25.275l-17.714,4.51c-.018-7.21.143-14.982.484-16.625l.073-.247c1.1-1.159,18.25-8.283,29.842-12.912m-16.151-32.242,16.586,30.709c-9.845,3.919-24.767,9.991-29.761,12.748Zm-14.974,45.095c-.534,2.69-.547,13.875-.536,17.253l-.419.107.125.172-36.932,20.164-23.994-38.58c8.158-8.168,27.676-27.675,30.576-30.43,2.729,2.435,19.682,19.593,31.18,31.315" transform="translate(-195.627 103.608)" fill="#75fbb5"/>
          <path id="Path_17568" data-name="Path 17568" d="M610.993,188.74,509.271,96.626l63.774-20.382L464.692,50.652,348.405,24.07l-.125.021L201.709,49.579l.216,1.245,2.356-.406,144.09-25.061L464.406,51.883,568.327,76.426,506.8,96.093l103.349,93.585Z" transform="translate(-79.599 38.602)" fill="#75fbb5"/>
          <path id="Path_17569" data-name="Path 17569" d="M556.994,98.7l-.073-1.26-4.314.318-113.633,8.319-.172.187c-1.666,1.544-42.7,19.411-69.963,31.076l-62.876-1.2-43.488,30.54.7,1.047.208-.138,42.965-30.18,62.738,1.2.125-.052C376.063,135.62,434.9,110.4,439.5,107.3Z" transform="translate(-183.817 156.268)" fill="#75fbb5"/>
          <path id="Path_17570" data-name="Path 17570" d="M657.928,114.1l-.005-1.26-86.906.315C555.566,118.087,420,161.374,418.173,162.6c-1.708,1.146-22.218,15.534-24.968,17.466L355.73,165.957l-.185.039-73.957,16.372-15.748,17.4L233.4,186.68l72.57-47.469c14.172-3.083,28.451-6.858,42.262-10.506l5.848-1.549q6.815-1.812,13.641-3.611l-.32-1.221q-6.827,1.8-13.646,3.609l-5.848,1.554c-13.836,3.653-28.144,7.436-42.332,10.522l-.208.042-.088.107-73.023,47.766L218.2,161.9l-35.362,9.746,17.539,43.613,32.839-11.9-.5-15.594,33.474,13.5,16.07-17.747,73.377-16.245,37.752,14.209.271-.19c.234-.167,23.439-16.448,25.217-17.638,2.315-1.219,100.667-32.74,152.435-49.261Zm-426.5,72.892.5,15.487-30.834,11.178-16.557-41.171,33.065-9.113Z" transform="translate(-77.395 180.969)" fill="#75fbb5"/>
          <path id="Path_17571" data-name="Path 17571" d="M562.95,207.883l-.2-.8L533.34,87.243l-.745.063-71.978,28.707L495.015,155l-6.379,33.987L324.989,240.365,343.809,204l-.409-.323L291.692,162.9l-12.074,44.376-60.28,42.082-12.225-25.35,23.627-44.024-1.112-.6L205.7,223.977l12.2,25.3-27.217-8.316-.37,1.208,28.332,8.658.07.143.312-.026.177.055.112-.081,103.33-8.767-.172.331,1.568-.492,75.949-19.14,88.044-16.779ZM532.408,88.74,561.33,206.581l-73.465-1.765-88.148,16.8-54.781,13.81,144.8-45.467,6.634-35.338-.206-.229L462.749,116.52Zm-190.2,115.607-18.88,36.487L221.38,249.473l59.335-41.423,11.694-42.978Z" transform="translate(-1.88 139.917)" fill="#75fbb5"/>
          <path id="Path_17572" data-name="Path 17572" d="M745.145,373.249,823.607,83.356,748.9,229.287,702.4,68.361l-.758.771-92.379,94.243L546.415,83.1l1.5-1.07-2.127.266L497.441,18.465l-.479.266L332.883,110.292,543.1,83.908,355.247,217.44,570.51,262.61,356.358,316.994l-.133.247-23.754,45.272-50.2-47.98L276.962,336l-98.55-.122-29.365,44.17-30.511-29.037-.359.122L56.623,371.9,11.336,359.28l35.3,31.969,8.186-3.4,126.465,21.226.375-.365.047-.146,5.6-19.109c2.328-.245,15.557-2.284,101.878-17.531l8.637,24.41.443.45,34.672-32.646.12-.023.094-.18.409-.383-.138-.13,23.791-45.342,215.993-54.854,106.34,64.011,69.388-95.446.081.036.393-.771,69.836-136.4L743.924,372.918Zm2.63-142.015L679.2,325.563,574.077,262.279,609.564,165.2ZM701.784,70.79l45.951,159.025L610.278,164.143Zm-93.366,93.863L572.9,261.821,358.332,216.8,545.384,83.833l62.988,80.454-.232.234ZM290.447,371.7c19.088-3.388,34.75-6.181,40.22-7.158l-32.115,30.238Zm-7.468-54.752,48.328,46.2c-4.507.8-20.973,3.739-41.285,7.345l-11.91-33.9ZM497.1,20.1l47.245,62.378L339.168,108.23ZM277.11,337.554l11.652,33.162c-66.12,11.68-91.077,15.914-98.891,17.109Zm-98.021-.414,96.011.117L186.694,388.2c-3.32-.45-31.1-6.436-36.5-7.6Zm6.931,52.229-5.364,18.318L55.384,386.661c.031-5.905.516-12.449,1.284-13.443l.016-.005c1.927.443,14.831,5.252,23.273,8.467l.226.042,68.724-.07.359.344.18-.266c3.916.846,31.209,6.739,36.575,7.639m-67.8-36.921,29.36,27.944-67.284.068c-2.265-.862-16.167-6.145-21.57-7.936ZM55.452,372.884c-1.164,2.645-1.315,10.694-1.331,13.889l-7.225,3L16.143,361.93Z" transform="translate(203.475 29.614)" fill="#75fbb5"/>
          <path id="Path_17573" data-name="Path 17573" d="M187.941,227.831l.409-116.315L107.221,212.787l.9.885.06-.068,78.891-98.48-.4,112.7Z" transform="translate(589.069 178.845)" fill="#75fbb5"/>
        </g>
      </g>
    </g>
  </g>
</svg>
